<?xml version="1.0" encoding="UTF-8"?>
<svg xmlns="http://www.w3.org/2000/svg" xmlns:xlink="http://www.w3.org/1999/xlink" width="0" height="0">
<defs>
<symbol viewBox="0 0 24 24" fill="none" id="unordered-list">
  <path d="M6.5 6C6.5 6.27614 6.27614 6.5 6 6.5C5.72386 6.5 5.5 6.27614 5.5 6C5.5 5.72386 5.72386 5.5 6 5.5C6.27614 5.5 6.5 5.72386 6.5 6Z" stroke="currentColor" stroke-linecap="round" stroke-linejoin="round"></path>
  <path d="M6.5 12C6.5 12.2761 6.27614 12.5 6 12.5C5.72386 12.5 5.5 12.2761 5.5 12C5.5 11.7239 5.72386 11.5 6 11.5C6.27614 11.5 6.5 11.7239 6.5 12Z" stroke="currentColor" stroke-linecap="round" stroke-linejoin="round"></path>
  <path d="M6.5 18C6.5 18.2761 6.27614 18.5 6 18.5C5.72386 18.5 5.5 18.2761 5.5 18C5.5 17.7239 5.72386 17.5 6 17.5C6.27614 17.5 6.5 17.7239 6.5 18Z" stroke="currentColor" stroke-linecap="round" stroke-linejoin="round"></path>
  <path d="M9.75 6H18.25" stroke="currentColor" stroke-width="1.5" stroke-linecap="round" stroke-linejoin="round"></path>
  <path d="M9.75 12H18.25" stroke="currentColor" stroke-width="1.5" stroke-linecap="round" stroke-linejoin="round"></path>
  <path d="M9.75 18H18.25" stroke="currentColor" stroke-width="1.5" stroke-linecap="round" stroke-linejoin="round"></path>
</symbol>
<symbol fill="none" viewBox="0 0 24 24" id="trash">
  <path stroke="currentColor" stroke-linecap="round" stroke-linejoin="round" stroke-width="1.5" d="M6.75 7.75L7.59115 17.4233C7.68102 18.4568 8.54622 19.25 9.58363 19.25H14.4164C15.4538 19.25 16.319 18.4568 16.4088 17.4233L17.25 7.75"></path>
  <path stroke="currentColor" stroke-linecap="round" stroke-linejoin="round" stroke-width="1.5" d="M9.75 7.5V6.75C9.75 5.64543 10.6454 4.75 11.75 4.75H12.25C13.3546 4.75 14.25 5.64543 14.25 6.75V7.5"></path>
  <path stroke="currentColor" stroke-linecap="round" stroke-linejoin="round" stroke-width="1.5" d="M5 7.75H19"></path>
</symbol>
<symbol viewBox="0 0 24 24" fill="none" id="refresh-3">
<path d="M11.25 14.75L8.75 17M8.75 17L11.25 19.25M8.75 17H13.25C16.5637 17 19.25 14.3137 19.25 11V10.75" stroke="currentColor" stroke-width="1.5" stroke-linecap="round" stroke-linejoin="round"></path>
<path d="M15.25 7H10.75C7.43629 7 4.75 9.68629 4.75 13V13.25M15.25 7L12.75 9.25M15.25 7L12.75 4.75" stroke="currentColor" stroke-width="1.5" stroke-linecap="round" stroke-linejoin="round"></path>
</symbol>
<symbol fill="none" viewBox="0 0 24 24" id="plus">
  <path stroke="currentColor" stroke-linecap="round" stroke-linejoin="round" stroke-width="1.5" d="M12 5.75V18.25"></path>
  <path stroke="currentColor" stroke-linecap="round" stroke-linejoin="round" stroke-width="1.5" d="M18.25 12L5.75 12"></path>
</symbol>
<symbol fill="none" viewBox="0 0 24 24" id="minus">
  <path stroke="currentColor" stroke-linecap="round" stroke-linejoin="round" stroke-width="1.5" d="M18.25 12.25L5.75 12.25"></path>
</symbol>
<symbol fill="none" viewBox="0 0 24 24" id="home">
  <path stroke="currentColor" stroke-linecap="round" stroke-linejoin="round" stroke-width="1.5" d="M6.75024 19.2502H17.2502C18.3548 19.2502 19.2502 18.3548 19.2502 17.2502V9.75025L12.0002 4.75024L4.75024 9.75025V17.2502C4.75024 18.3548 5.64568 19.2502 6.75024 19.2502Z"></path>
  <path stroke="currentColor" stroke-linecap="round" stroke-linejoin="round" stroke-width="1.5" d="M9.74963 15.7493C9.74963 14.6447 10.6451 13.7493 11.7496 13.7493H12.2496C13.3542 13.7493 14.2496 14.6447 14.2496 15.7493V19.2493H9.74963V15.7493Z"></path>
</symbol>
<symbol viewBox="0 0 24 24" fill="none" id="github">
<path d="M4.75 12C4.75 10.7811 5.05079 9.63249 5.58219 8.62429L4.80156 6.0539C4.53964 5.19151 5.46262 4.44997 6.24833 4.89154L8.06273 5.91125C9.1965 5.17659 10.5484 4.75 12 4.75C13.4526 4.75 14.8054 5.17719 15.9396 5.91278L17.7624 4.8911C18.549 4.45014 19.4715 5.19384 19.2075 6.05617L18.42 8.62837C18.95 9.63558 19.25 10.7828 19.25 12C19.25 16.0041 16.0041 19.25 12 19.25C7.99594 19.25 4.75 16.0041 4.75 12Z" stroke="currentColor" stroke-width="1.5" stroke-linecap="round" stroke-linejoin="round"></path>
</symbol>
<symbol fill="none" viewBox="0 0 24 24" id="file-error">
  <path fill="#141414" d="M17.25 9.25V10a.75.75 0 0 0 .53-1.28l-.53.53Zm-4.5-4.5.53-.53a.75.75 0 0 0-.53-.22v.75ZM9.25 20a.75.75 0 0 0 0-1.5V20Zm8.53-11.28-4.5-4.5-1.06 1.06 4.5 4.5 1.06-1.06ZM12.75 4h-6v1.5h6V4ZM4 6.75v10.5h1.5V6.75H4ZM6.75 20h2.5v-1.5h-2.5V20ZM12 4.75v3.5h1.5v-3.5H12ZM13.75 10h3.5V8.5h-3.5V10ZM12 8.25c0 .966.784 1.75 1.75 1.75V8.5a.25.25 0 0 1-.25-.25H12Zm-8 9A2.75 2.75 0 0 0 6.75 20v-1.5c-.69 0-1.25-.56-1.25-1.25H4ZM6.75 4A2.75 2.75 0 0 0 4 6.75h1.5c0-.69.56-1.25 1.25-1.25V4Zm8.75 10.5a2 2 0 0 1 2 2H19a3.5 3.5 0 0 0-3.5-3.5v1.5Zm0 4a2 2 0 0 1-2-2H12a3.5 3.5 0 0 0 3.5 3.5v-1.5Zm0-5.5a3.49 3.49 0 0 0-2.402.955l1.03 1.09A1.99 1.99 0 0 1 15.5 14.5V13Zm-2.402.955A3.492 3.492 0 0 0 12 16.5h1.5c0-.573.24-1.089.627-1.455l-1.03-1.09ZM15.5 20a3.492 3.492 0 0 0 2.545-1.098l-1.09-1.03a1.992 1.992 0 0 1-1.455.628V20Zm2.545-1.098A3.49 3.49 0 0 0 19 16.5h-1.5a1.99 1.99 0 0 1-.545 1.373l1.09 1.03Zm-4.963-3.872 3.888 3.888 1.06-1.06-3.887-3.888-1.06 1.06Z"></path>
</symbol>
<symbol fill="none" viewBox="0 0 24 24" id="eye">
  <path stroke="currentColor" stroke-linecap="round" stroke-linejoin="round" stroke-width="1.5" d="M19.25 12C19.25 13 17.5 18.25 12 18.25C6.5 18.25 4.75 13 4.75 12C4.75 11 6.5 5.75 12 5.75C17.5 5.75 19.25 11 19.25 12Z"></path>
  <circle cx="12" cy="12" r="2.25" stroke="currentColor" stroke-linecap="round" stroke-linejoin="round" stroke-width="1.5"></circle>
</symbol>
<symbol fill="none" viewBox="0 0 24 24" id="eye-off">
  <path stroke="currentColor" stroke-linecap="round" stroke-linejoin="round" stroke-width="1.5" d="M18.6247 10C19.0646 10.8986 19.25 11.6745 19.25 12C19.25 13 17.5 18.25 12 18.25C11.2686 18.25 10.6035 18.1572 10 17.9938M7 16.2686C5.36209 14.6693 4.75 12.5914 4.75 12C4.75 11 6.5 5.75 12 5.75C13.7947 5.75 15.1901 6.30902 16.2558 7.09698"></path>
  <path stroke="currentColor" stroke-linecap="round" stroke-linejoin="round" stroke-width="1.5" d="M19.25 4.75L4.75 19.25"></path>
  <path stroke="currentColor" stroke-linecap="round" stroke-linejoin="round" stroke-width="1.5" d="M10.409 13.591C9.53033 12.7123 9.53033 11.2877 10.409 10.409C11.2877 9.5303 12.7123 9.5303 13.591 10.409"></path>
</symbol>
<symbol fill="none" viewBox="0 0 24 24" id="edit">
  <path stroke="currentColor" stroke-linecap="round" stroke-linejoin="round" stroke-width="1.5" d="M4.75 19.25L9 18.25L18.2929 8.95711C18.6834 8.56658 18.6834 7.93342 18.2929 7.54289L16.4571 5.70711C16.0666 5.31658 15.4334 5.31658 15.0429 5.70711L5.75 15L4.75 19.25Z"></path>
  <path stroke="currentColor" stroke-linecap="round" stroke-linejoin="round" stroke-width="1.5" d="M19.25 19.25H13.75"></path>
</symbol>
<symbol viewBox="0 0 24 24" fill="none" id="dot-grid-vertical-2x3">
<path d="M9.75 12C9.75 12.4142 9.41421 12.75 9 12.75C8.58579 12.75 8.25 12.4142 8.25 12C8.25 11.5858 8.58579 11.25 9 11.25C9.41421 11.25 9.75 11.5858 9.75 12Z" stroke="#141414" stroke-width="1.5" stroke-linecap="round" stroke-linejoin="round"></path>
<path d="M15.75 12C15.75 12.4142 15.4142 12.75 15 12.75C14.5858 12.75 14.25 12.4142 14.25 12C14.25 11.5858 14.5858 11.25 15 11.25C15.4142 11.25 15.75 11.5858 15.75 12Z" stroke="#141414" stroke-width="1.5" stroke-linecap="round" stroke-linejoin="round"></path>
<path d="M9.75 18.5C9.75 18.9142 9.41421 19.25 9 19.25C8.58579 19.25 8.25 18.9142 8.25 18.5C8.25 18.0858 8.58579 17.75 9 17.75C9.41421 17.75 9.75 18.0858 9.75 18.5Z" stroke="#141414" stroke-width="1.5" stroke-linecap="round" stroke-linejoin="round"></path>
<path d="M15.75 18.5C15.75 18.9142 15.4142 19.25 15 19.25C14.5858 19.25 14.25 18.9142 14.25 18.5C14.25 18.0858 14.5858 17.75 15 17.75C15.4142 17.75 15.75 18.0858 15.75 18.5Z" stroke="#141414" stroke-width="1.5" stroke-linecap="round" stroke-linejoin="round"></path>
<path d="M9.75 5.5C9.75 5.91421 9.41421 6.25 9 6.25C8.58579 6.25 8.25 5.91421 8.25 5.5C8.25 5.08579 8.58579 4.75 9 4.75C9.41421 4.75 9.75 5.08579 9.75 5.5Z" stroke="#141414" stroke-width="1.5" stroke-linecap="round" stroke-linejoin="round"></path>
<path d="M15.75 5.5C15.75 5.91421 15.4142 6.25 15 6.25C14.5858 6.25 14.25 5.91421 14.25 5.5C14.25 5.08579 14.5858 4.75 15 4.75C15.4142 4.75 15.75 5.08579 15.75 5.5Z" stroke="#141414" stroke-width="1.5" stroke-linecap="round" stroke-linejoin="round"></path>
</symbol>
<symbol fill="none" viewBox="0 0 24 24" id="close">
  <path stroke="currentColor" stroke-linecap="round" stroke-linejoin="round" stroke-width="1.5" d="M17.25 6.75L6.75 17.25"></path>
  <path stroke="currentColor" stroke-linecap="round" stroke-linejoin="round" stroke-width="1.5" d="M6.75 6.75L17.25 17.25"></path>
</symbol>
<symbol fill="none" viewBox="0 0 24 24" id="chevron-left">
  <path stroke="currentColor" stroke-linecap="round" stroke-linejoin="round" stroke-width="1.5" d="M13.25 8.75L9.75 12L13.25 15.25"></path>
</symbol>
<symbol viewBox="0 0 24 24" fill="none" id="checkmark">
<path d="M7.75 12.75L10 15.25L16.25 8.75" stroke="currentColor" stroke-width="1.5" stroke-linecap="round" stroke-linejoin="round"></path>
</symbol>
<symbol fill="none" viewBox="0 0 24 24" id="checklist-2">
  <path stroke="currentColor" stroke-linecap="round" stroke-linejoin="round" stroke-width="1.5" d="M19.25 12.25v-5.5a2 2 0 0 0-2-2H6.75a2 2 0 0 0-2 2v10.5a2 2 0 0 0 2 2h4.5m-2.5-10.5h6.5m-6.5 4h6.5m-.5 5 1.5 1.5c.75-2.25 3-3.5 3-3.5"></path>
</symbol>
<symbol viewBox="0 0 24 24" fill="none" id="check-2">
<path d="M10.25 16.25L9.6397 16.6859C9.80873 16.9226 10.0993 17.0402 10.3854 16.9877C10.6714 16.9352 10.9013 16.7221 10.9753 16.4409L10.25 16.25ZM16.7147 8.33866C17.0398 8.082 17.0953 7.61038 16.8387 7.28527C16.582 6.96016 16.1104 6.90467 15.7853 7.16134L16.7147 8.33866ZM8.3603 12.3141C8.11954 11.977 7.65113 11.8989 7.31407 12.1397C6.97701 12.3805 6.89894 12.8489 7.1397 13.1859L8.3603 12.3141ZM10.9753 16.4409C11.5574 14.2291 12.971 12.2079 14.2825 10.7134C14.9328 9.97242 15.5456 9.37472 15.9949 8.96321C16.2192 8.7577 16.4021 8.59926 16.5275 8.49327C16.5902 8.44029 16.6385 8.40046 16.6704 8.37446C16.6863 8.36146 16.6982 8.35192 16.7056 8.34593C16.7094 8.34293 16.712 8.34082 16.7136 8.3396C16.7143 8.339 16.7148 8.33861 16.715 8.33846C16.7151 8.33838 16.7151 8.33835 16.7151 8.33839C16.7151 8.33841 16.715 8.33847 16.715 8.33848C16.7149 8.33857 16.7147 8.33866 16.25 7.75C15.7853 7.16134 15.7851 7.16146 15.7849 7.1616C15.7848 7.16167 15.7847 7.16182 15.7845 7.16195C15.7842 7.16222 15.7838 7.16254 15.7833 7.16292C15.7823 7.16367 15.7811 7.16466 15.7796 7.16587C15.7765 7.1683 15.7723 7.17164 15.767 7.17588C15.7565 7.18436 15.7415 7.19646 15.7223 7.21209C15.684 7.24333 15.629 7.28871 15.5594 7.34755C15.4202 7.46519 15.2222 7.63683 14.9817 7.8571C14.5013 8.29716 13.8485 8.93383 13.155 9.72406C11.779 11.2921 10.1926 13.5209 9.52469 16.0591L10.9753 16.4409ZM7.1397 13.1859L9.6397 16.6859L10.8603 15.8141L8.3603 12.3141L7.1397 13.1859Z" fill="currentColor"></path>
</symbol>
</defs>
</svg>
