<?xml version="1.0" encoding="UTF-8"?>
<svg xmlns="http://www.w3.org/2000/svg" xmlns:xlink="http://www.w3.org/1999/xlink" width="0" height="0">
<defs>
<symbol viewBox="0 0 24 24" fill="none" id="unordered-list">
  <path d="M6.5 6C6.5 6.27614 6.27614 6.5 6 6.5C5.72386 6.5 5.5 6.27614 5.5 6C5.5 5.72386 5.72386 5.5 6 5.5C6.27614 5.5 6.5 5.72386 6.5 6Z" stroke="currentColor" stroke-linecap="round" stroke-linejoin="round"></path>
  <path d="M6.5 12C6.5 12.2761 6.27614 12.5 6 12.5C5.72386 12.5 5.5 12.2761 5.5 12C5.5 11.7239 5.72386 11.5 6 11.5C6.27614 11.5 6.5 11.7239 6.5 12Z" stroke="currentColor" stroke-linecap="round" stroke-linejoin="round"></path>
  <path d="M6.5 18C6.5 18.2761 6.27614 18.5 6 18.5C5.72386 18.5 5.5 18.2761 5.5 18C5.5 17.7239 5.72386 17.5 6 17.5C6.27614 17.5 6.5 17.7239 6.5 18Z" stroke="currentColor" stroke-linecap="round" stroke-linejoin="round"></path>
  <path d="M9.75 6H18.25" stroke="currentColor" stroke-width="1.5" stroke-linecap="round" stroke-linejoin="round"></path>
  <path d="M9.75 12H18.25" stroke="currentColor" stroke-width="1.5" stroke-linecap="round" stroke-linejoin="round"></path>
  <path d="M9.75 18H18.25" stroke="currentColor" stroke-width="1.5" stroke-linecap="round" stroke-linejoin="round"></path>
</symbol>
<symbol viewBox="0 0 24 24" fill="none" id="refresh-3">
<path d="M11.25 14.75L8.75 17M8.75 17L11.25 19.25M8.75 17H13.25C16.5637 17 19.25 14.3137 19.25 11V10.75" stroke="currentColor" stroke-width="1.5" stroke-linecap="round" stroke-linejoin="round"></path>
<path d="M15.25 7H10.75C7.43629 7 4.75 9.68629 4.75 13V13.25M15.25 7L12.75 9.25M15.25 7L12.75 4.75" stroke="currentColor" stroke-width="1.5" stroke-linecap="round" stroke-linejoin="round"></path>
</symbol>
<symbol fill="none" viewBox="0 0 24 24" id="plus">
  <path stroke="currentColor" stroke-linecap="round" stroke-linejoin="round" stroke-width="1.5" d="M12 5.75V18.25"></path>
  <path stroke="currentColor" stroke-linecap="round" stroke-linejoin="round" stroke-width="1.5" d="M18.25 12L5.75 12"></path>
</symbol>
<symbol fill="none" viewBox="0 0 24 24" id="home">
  <path stroke="currentColor" stroke-linecap="round" stroke-linejoin="round" stroke-width="1.5" d="M6.75024 19.2502H17.2502C18.3548 19.2502 19.2502 18.3548 19.2502 17.2502V9.75025L12.0002 4.75024L4.75024 9.75025V17.2502C4.75024 18.3548 5.64568 19.2502 6.75024 19.2502Z"></path>
  <path stroke="currentColor" stroke-linecap="round" stroke-linejoin="round" stroke-width="1.5" d="M9.74963 15.7493C9.74963 14.6447 10.6451 13.7493 11.7496 13.7493H12.2496C13.3542 13.7493 14.2496 14.6447 14.2496 15.7493V19.2493H9.74963V15.7493Z"></path>
</symbol>
<symbol fill="none" viewBox="0 0 24 24" id="file-error">
  <path fill="#141414" d="M17.25 9.25V10a.75.75 0 0 0 .53-1.28l-.53.53Zm-4.5-4.5.53-.53a.75.75 0 0 0-.53-.22v.75ZM9.25 20a.75.75 0 0 0 0-1.5V20Zm8.53-11.28-4.5-4.5-1.06 1.06 4.5 4.5 1.06-1.06ZM12.75 4h-6v1.5h6V4ZM4 6.75v10.5h1.5V6.75H4ZM6.75 20h2.5v-1.5h-2.5V20ZM12 4.75v3.5h1.5v-3.5H12ZM13.75 10h3.5V8.5h-3.5V10ZM12 8.25c0 .966.784 1.75 1.75 1.75V8.5a.25.25 0 0 1-.25-.25H12Zm-8 9A2.75 2.75 0 0 0 6.75 20v-1.5c-.69 0-1.25-.56-1.25-1.25H4ZM6.75 4A2.75 2.75 0 0 0 4 6.75h1.5c0-.69.56-1.25 1.25-1.25V4Zm8.75 10.5a2 2 0 0 1 2 2H19a3.5 3.5 0 0 0-3.5-3.5v1.5Zm0 4a2 2 0 0 1-2-2H12a3.5 3.5 0 0 0 3.5 3.5v-1.5Zm0-5.5a3.49 3.49 0 0 0-2.402.955l1.03 1.09A1.99 1.99 0 0 1 15.5 14.5V13Zm-2.402.955A3.492 3.492 0 0 0 12 16.5h1.5c0-.573.24-1.089.627-1.455l-1.03-1.09ZM15.5 20a3.492 3.492 0 0 0 2.545-1.098l-1.09-1.03a1.992 1.992 0 0 1-1.455.628V20Zm2.545-1.098A3.49 3.49 0 0 0 19 16.5h-1.5a1.99 1.99 0 0 1-.545 1.373l1.09 1.03Zm-4.963-3.872 3.888 3.888 1.06-1.06-3.887-3.888-1.06 1.06Z"></path>
</symbol>
</defs>
</svg>