<svg width="24" height="24" viewBox="0 0 24 24" fill="none" xmlns="http://www.w3.org/2000/svg">
<path d="M9.75 12C9.75 12.4142 9.41421 12.75 9 12.75C8.58579 12.75 8.25 12.4142 8.25 12C8.25 11.5858 8.58579 11.25 9 11.25C9.41421 11.25 9.75 11.5858 9.75 12Z" stroke="#141414" stroke-width="1.5" stroke-linecap="round" stroke-linejoin="round"></path>
<path d="M15.75 12C15.75 12.4142 15.4142 12.75 15 12.75C14.5858 12.75 14.25 12.4142 14.25 12C14.25 11.5858 14.5858 11.25 15 11.25C15.4142 11.25 15.75 11.5858 15.75 12Z" stroke="#141414" stroke-width="1.5" stroke-linecap="round" stroke-linejoin="round"></path>
<path d="M9.75 18.5C9.75 18.9142 9.41421 19.25 9 19.25C8.58579 19.25 8.25 18.9142 8.25 18.5C8.25 18.0858 8.58579 17.75 9 17.75C9.41421 17.75 9.75 18.0858 9.75 18.5Z" stroke="#141414" stroke-width="1.5" stroke-linecap="round" stroke-linejoin="round"></path>
<path d="M15.75 18.5C15.75 18.9142 15.4142 19.25 15 19.25C14.5858 19.25 14.25 18.9142 14.25 18.5C14.25 18.0858 14.5858 17.75 15 17.75C15.4142 17.75 15.75 18.0858 15.75 18.5Z" stroke="#141414" stroke-width="1.5" stroke-linecap="round" stroke-linejoin="round"></path>
<path d="M9.75 5.5C9.75 5.91421 9.41421 6.25 9 6.25C8.58579 6.25 8.25 5.91421 8.25 5.5C8.25 5.08579 8.58579 4.75 9 4.75C9.41421 4.75 9.75 5.08579 9.75 5.5Z" stroke="#141414" stroke-width="1.5" stroke-linecap="round" stroke-linejoin="round"></path>
<path d="M15.75 5.5C15.75 5.91421 15.4142 6.25 15 6.25C14.5858 6.25 14.25 5.91421 14.25 5.5C14.25 5.08579 14.5858 4.75 15 4.75C15.4142 4.75 15.75 5.08579 15.75 5.5Z" stroke="#141414" stroke-width="1.5" stroke-linecap="round" stroke-linejoin="round"></path>
</svg>
